<svg width="217" height="60" viewBox="0 0 217 60" fill="none" xmlns="http://www.w3.org/2000/svg">
<path d="M58.5551 29.9973C58.5551 35.6455 56.8802 41.1669 53.7423 45.8632C50.6043 50.5595 46.1442 54.2198 40.9259 56.3813C35.7076 58.5428 29.9656 59.1083 24.4259 58.0064C18.8863 56.9045 13.7977 54.1846 9.80386 50.1907C5.80998 46.1968 3.09011 41.1083 1.9882 35.5686C0.886286 30.029 1.45183 24.2869 3.6133 19.0687C5.77478 13.8504 9.43511 9.39029 14.1314 6.25232C18.8277 3.11434 24.3491 1.43945 29.9973 1.43945C37.5713 1.43945 44.8351 4.44822 50.1907 9.80385C55.5464 15.1595 58.5551 22.4233 58.5551 29.9973" fill="#042354"/>
<path d="M29.9969 6.55396e-07C24.0634 0.000620757 18.2634 1.7607 13.3303 5.05765C8.39717 8.35461 4.55248 13.0404 2.28243 18.5224C0.0123719 24.0044 -0.581098 30.0365 0.577067 35.8558C1.73523 41.6751 4.59301 47.0203 8.78902 51.2154C12.985 55.4105 18.3308 58.2672 24.1504 59.4242C29.9699 60.5811 36.0019 59.9864 41.4834 57.7152C46.965 55.444 51.6499 51.5983 54.9458 46.6645C58.2418 41.7307 60.0006 35.9303 60 29.9969C60 26.0571 59.2239 22.1559 57.716 18.5161C56.2082 14.8763 53.998 11.5692 51.2119 8.78366C48.4258 5.99811 45.1182 3.78869 41.4781 2.28158C37.838 0.774461 33.9366 -0.000822875 29.9969 6.55396e-07V6.55396e-07ZM30.834 57.3414C17.1147 58.2255 6.87847 47.6695 4.73405 41.183C4.80302 41.1297 4.95664 41.0388 4.95664 41.0388C8.27047 40.0982 11.484 41.7881 15.127 44.8542C17.7636 47.0707 23.0212 53.1435 29.467 56.056C29.9522 56.3331 30.4624 56.564 30.9907 56.7457C30.9907 56.821 30.8747 57.1941 30.834 57.3508V57.3414ZM40.5278 55.3098C40.0794 55.476 36.7248 56.5419 34.1196 55.8209C33.6211 55.6735 33.1445 55.5074 32.6555 55.3381C29.0877 54.0213 25.7958 51.8361 22.6858 49.4095C18.7637 46.3497 15.9139 42.3869 10.6344 39.907C10.6715 39.8207 10.6978 39.7301 10.7127 39.6374C13.6409 39.9822 17.2965 40.3459 22.1308 43.3023C23.99 44.4404 31.6334 48.9455 32.6555 49.4472C34.7194 50.4451 36.8603 51.2754 39.0574 51.9302C40.2934 52.292 41.5496 52.5809 42.8195 52.7955C42.8195 52.7955 43.8479 52.9209 44.1582 52.9522L44.3557 53.4162C43.1247 54.137 41.8421 54.7658 40.5183 55.2973L40.5278 55.3098ZM49.8485 49.118C46.8294 51.717 42.5342 51.1558 39.5998 50.4535C35.1071 49.3688 27.934 45.3057 26.0529 44.0642C26.0968 44.0109 26.2159 43.8384 26.2598 43.7883C29.768 45.0423 43.9074 48.5975 53.0965 43.9262C53.1623 43.9983 53.2219 44.0767 53.2908 44.1457C53.3598 44.2146 53.526 44.3683 53.6044 44.4372C52.5174 46.123 51.2587 47.6916 49.8485 49.118V49.118ZM48.1304 43.7538C48.5132 43.3712 48.8047 42.9072 48.9832 42.3963L50.2749 38.3614H48.2809C46.6851 40.7817 42.854 40.4149 39.6844 38.4397C34.687 35.3297 31.2196 33.4235 28.7742 33.2731C28.4485 33.2501 28.1212 33.2659 27.7992 33.3201V33.3201C28.1816 37.1512 28.9341 39.5245 29.3667 40.6187C29.5548 41.0983 29.6802 41.3335 29.6802 41.3335L29.2225 41.2394C29.0861 41.0702 28.9594 40.8933 28.8431 40.7096C28.2506 39.8004 27.0749 37.6873 26.1438 34.0788C25.4137 34.6497 24.9229 35.4725 24.7675 36.3862C24.7388 36.6518 24.7242 36.9186 24.7236 37.1857L25.7425 39.5621L27.0655 42.6377C26.5953 42.4621 25.9996 42.2113 25.313 41.9291C20.6103 39.9728 11.067 36.0132 3.8374 39.3866C2.4672 35.5725 1.94777 31.505 2.31553 27.4691C2.68329 23.4331 3.92934 19.5264 5.96633 16.0229C8.00333 12.5194 10.782 9.50374 14.1075 7.18745C17.433 4.87116 21.2248 3.31024 25.2173 2.61413C29.2097 1.91802 33.3061 2.10355 37.2192 3.15773C41.1324 4.2119 44.7676 6.10921 47.8701 8.71664C50.9726 11.3241 53.4673 14.5785 55.1792 18.2519C56.8911 21.9252 57.7789 25.9285 57.7803 29.9812C57.7803 32.4893 57.2599 36.1103 56.821 37.2265C55.3005 40.6751 52.1434 42.7161 48.1398 43.7381" fill="white"/>
<path d="M44.899 26.75C45.2372 24.5255 45.9686 22.3789 47.0591 20.4107C44.5246 18.9125 41.6443 18.0987 38.7005 18.0493C35.7568 17.9998 32.8507 18.7163 30.2673 20.1286C29.8303 20.942 29.4592 21.7891 29.1575 22.6618V22.6931C28.1763 22.9639 27.2295 23.3468 26.3359 23.8343C25.4993 25.112 24.9872 26.5745 24.844 28.095C24.7009 29.6155 24.931 31.148 25.5145 32.5593C25.6779 32.9582 25.8696 33.3448 26.0882 33.7162L25.8437 32.2113C26.6191 31.7138 27.5283 31.4655 28.449 31.4997C31.142 31.4997 34.8289 33.0954 38.7949 35.9766L38.7008 35.7227C37.3042 31.8715 37.4162 27.6345 39.0143 23.8625C37.677 23.122 36.2201 22.6222 34.7098 22.3859L34.7725 22.1789C36.5833 22.3331 38.3565 22.7843 40.0207 23.5145C38.8516 26.9744 38.9181 30.7325 40.2088 34.1488C42.6251 35.0726 44.7917 36.5489 46.5355 38.4596L46.7612 38.3593C44.9404 34.7833 44.289 30.7256 44.899 26.7594" fill="white"/>
<path d="M17.112 20.8395C17.2907 22.7613 17.6167 26.0469 17.6167 26.0469H18.1842C18.1842 26.0469 18.5165 22.7613 18.7015 20.8395C18.8081 19.6764 19.269 19.1654 20.0998 18.9584C20.7864 18.7923 22.8869 18.4976 22.8869 18.4976V17.9489C22.8869 17.9489 20.6923 17.7138 19.9775 17.4755C19.6471 17.4038 19.3444 17.2386 19.1054 16.9996C18.8663 16.7605 18.7011 16.4578 18.6294 16.1274C18.4287 15.3875 18.1842 13.0801 18.1842 13.0801H17.6356C17.6356 13.0801 17.3785 15.3875 17.1684 16.1274C16.9019 17.093 16.3564 17.2937 15.8235 17.4755C15.1149 17.7138 12.9141 17.9489 12.9141 17.9489V18.4976C12.9141 18.4976 15.0177 18.8111 15.7043 18.971C16.5289 19.1748 16.9929 19.6858 17.112 20.852" fill="white"/>
<path d="M39.6962 15.3619L39.2228 17.4405C37.8 16.238 36.0306 15.5208 34.1721 15.3933L34.0938 15.0797C34.9841 14.6847 35.9543 14.5026 36.9273 14.5478C37.9003 14.5929 38.8494 14.8642 39.6993 15.34" fill="white"/>
<path fill-rule="evenodd" clip-rule="evenodd" d="M105 1.5H75V0H105V1.5Z" fill="white"/>
<path d="M84.605 15.151H75.765V15.491L76.734 15.831C76.938 15.899 76.989 16.035 76.989 16.239V25.912C76.989 26.116 76.938 26.235 76.734 26.32L75.765 26.66V27H80.525V26.66L79.59 26.32C79.386 26.235 79.318 26.116 79.318 25.912V21.424H81.511C81.817 21.424 82.038 21.509 82.242 21.951L82.735 23.107H83.194V19.061H82.735L82.225 20.217C82.021 20.625 81.817 20.727 81.511 20.727H79.318V15.933H82.395C82.888 15.933 83.075 16.052 83.296 16.528L83.959 17.939H84.605V15.151ZM88.3777 18.619C86.7117 18.619 85.4367 19.639 85.4367 20.506C85.4367 20.897 85.7597 21.271 86.2527 21.458C86.6607 21.611 86.8647 21.458 86.9497 21.203L87.1537 20.455C87.3407 19.724 87.5617 19.316 88.1907 19.316C89.0577 19.316 89.4487 20.013 89.4487 21.356V22.087L87.8337 22.478C85.8617 22.971 84.7567 23.753 84.7567 25.096C84.7567 26.32 85.6917 27.153 87.0007 27.153C88.0037 27.153 89.0407 26.677 89.4827 25.929V27.153L92.5087 26.762V26.49L91.6757 26.235C91.5227 26.184 91.4717 26.014 91.4717 25.827V21.73C91.4717 19.639 90.3497 18.619 88.3777 18.619ZM89.4317 22.682L89.4487 25.317C89.1257 25.827 88.5307 26.15 88.0207 26.15C87.3577 26.15 86.8307 25.725 86.8307 24.773C86.8307 23.872 87.4087 23.294 88.4287 22.971L89.4317 22.682ZM97.6747 18.619C95.1587 18.619 93.5267 20.336 93.5267 22.937C93.5267 25.47 95.0737 27.153 97.2667 27.153C98.6607 27.153 99.9697 26.49 100.684 25.555L100.276 25.164C99.7657 25.776 98.9157 26.116 98.1167 26.116C96.6547 26.116 95.6687 24.756 95.6687 22.58C95.6687 20.625 96.4677 19.316 97.7257 19.316C98.3887 19.316 98.7457 19.724 98.9327 20.455L99.1197 21.203C99.2047 21.458 99.4087 21.611 99.8337 21.458C100.31 21.271 100.633 20.897 100.633 20.506C100.633 19.639 99.4087 18.619 97.6747 18.619ZM109.46 18.653L106.383 19.367V19.656L107.216 19.826C107.386 19.86 107.42 20.047 107.42 20.217V25.266C107.029 25.64 106.434 25.912 105.89 25.912C104.989 25.912 104.632 25.402 104.632 24.161V18.653L101.572 19.367V19.656L102.405 19.826C102.575 19.86 102.592 20.047 102.592 20.217V24.824C102.592 26.422 103.697 27.153 104.904 27.153C105.822 27.153 106.91 26.558 107.437 25.844V27.153L110.497 26.762V26.49L109.664 26.235C109.511 26.184 109.46 26.014 109.46 25.827V18.653ZM114.445 14.675L111.385 15.406V15.678L112.218 15.865C112.388 15.899 112.405 16.086 112.405 16.222V26.082C112.405 26.235 112.388 26.371 112.201 26.439L111.385 26.711V27H115.482V26.711L114.649 26.422C114.479 26.371 114.445 26.235 114.445 26.082V14.675ZM119.459 16.579H118.626C117.963 18.279 117.742 18.602 116.382 18.959V19.503H117.436V24.705C117.436 26.847 118.66 27.153 119.527 27.153C120.649 27.153 121.431 26.609 122.179 25.64L121.822 25.266C121.363 25.844 120.768 26.201 120.241 26.201C119.833 26.201 119.459 25.929 119.459 24.96V19.503H121.856V18.755H119.459V16.579ZM126.312 18.619C124.646 18.619 123.371 19.639 123.371 20.506C123.371 20.897 123.694 21.271 124.187 21.458C124.595 21.611 124.799 21.458 124.884 21.203L125.088 20.455C125.275 19.724 125.496 19.316 126.125 19.316C126.992 19.316 127.383 20.013 127.383 21.356V22.087L125.768 22.478C123.796 22.971 122.691 23.753 122.691 25.096C122.691 26.32 123.626 27.153 124.935 27.153C125.938 27.153 126.975 26.677 127.417 25.929V27.153L130.443 26.762V26.49L129.61 26.235C129.457 26.184 129.406 26.014 129.406 25.827V21.73C129.406 19.639 128.284 18.619 126.312 18.619ZM127.366 22.682L127.383 25.317C127.06 25.827 126.465 26.15 125.955 26.15C125.292 26.15 124.765 25.725 124.765 24.773C124.765 23.872 125.343 23.294 126.363 22.971L127.366 22.682ZM139.383 14.675L136.323 15.406V15.678L137.156 15.865C137.309 15.899 137.36 16.069 137.36 16.256V19.112C136.867 18.823 136.068 18.619 135.354 18.619C133.025 18.619 131.478 20.37 131.478 22.988C131.478 25.487 132.821 27.153 134.861 27.153C135.779 27.153 136.782 26.694 137.377 25.98V27.153L140.42 26.762V26.49L139.587 26.235C139.434 26.184 139.383 26.014 139.383 25.827V14.675ZM135.898 19.316C136.476 19.316 137.071 19.605 137.36 20.064V25.368C136.986 25.827 136.34 26.116 135.745 26.116C134.538 26.116 133.722 24.79 133.722 22.801C133.722 20.727 134.589 19.316 135.898 19.316ZM153.677 14.675L150.617 15.406V15.678L151.45 15.865C151.603 15.899 151.654 16.069 151.654 16.256V19.112C151.161 18.823 150.362 18.619 149.648 18.619C147.319 18.619 145.772 20.37 145.772 22.988C145.772 25.487 147.115 27.153 149.155 27.153C150.073 27.153 151.076 26.694 151.671 25.98V27.153L154.714 26.762V26.49L153.881 26.235C153.728 26.184 153.677 26.014 153.677 25.827V14.675ZM150.192 19.316C150.77 19.316 151.365 19.605 151.654 20.064V25.368C151.28 25.827 150.634 26.116 150.039 26.116C148.832 26.116 148.016 24.79 148.016 22.801C148.016 20.727 148.883 19.316 150.192 19.316ZM159.76 18.619C157.397 18.619 155.816 20.353 155.816 22.92C155.816 25.47 157.397 27.153 159.607 27.153C161.29 27.153 162.667 26.184 163.364 24.875L162.922 24.552C162.344 25.487 161.273 26.048 160.372 26.048C158.825 26.048 158.043 24.688 158.026 22.665H163.211C163.245 22.529 163.279 22.308 163.262 22.138C163.262 20.013 161.885 18.619 159.76 18.619ZM159.777 19.316C160.61 19.316 161.171 20.234 161.171 21.373C161.171 21.696 161.137 21.815 160.984 21.849L158.06 22.036C158.179 20.404 158.842 19.316 159.777 19.316ZM82.038 32.913C77.941 32.913 75.765 35.361 75.765 39.067C75.765 42.756 78.145 45.238 81.783 45.238C83.517 45.238 85.098 44.524 86.118 43.572L85.71 43.028C84.724 43.844 83.262 44.388 82.106 44.388C79.828 44.388 78.298 42.246 78.298 38.999C78.298 35.82 79.794 33.695 81.936 33.695C83.228 33.695 84.248 34.29 84.758 35.344L85.353 36.551H86.101V33.933C84.979 33.321 83.347 32.913 82.038 32.913ZM89.2379 32.964C88.5239 32.964 87.9799 33.508 87.9799 34.171C87.9799 34.834 88.5239 35.412 89.2379 35.412C89.9689 35.412 90.5129 34.834 90.5129 34.171C90.5129 33.508 89.9689 32.964 89.2379 32.964ZM90.2749 36.653L87.2149 37.367V37.656L88.0309 37.826C88.2179 37.86 88.2349 38.047 88.2349 38.183V44.082C88.2349 44.235 88.2179 44.371 88.0309 44.439L87.2149 44.711V45H91.3289V44.711L90.4789 44.422C90.3259 44.354 90.2749 44.235 90.2749 44.082V36.653ZM96.375 36.619C94.012 36.619 92.431 38.353 92.431 40.92C92.431 43.47 94.012 45.153 96.222 45.153C97.905 45.153 99.282 44.184 99.979 42.875L99.537 42.552C98.959 43.487 97.888 44.048 96.987 44.048C95.44 44.048 94.658 42.688 94.641 40.665H99.826C99.86 40.529 99.894 40.308 99.877 40.138C99.877 38.013 98.5 36.619 96.375 36.619ZM96.392 37.316C97.225 37.316 97.786 38.234 97.786 39.373C97.786 39.696 97.752 39.815 97.599 39.849L94.675 40.036C94.794 38.404 95.457 37.316 96.392 37.316ZM106.703 36.619C105.768 36.619 104.714 37.129 104.136 37.843V36.653L101.11 37.367V37.656L101.96 37.826C102.13 37.86 102.147 38.047 102.147 38.217V44.082C102.147 44.252 102.113 44.371 101.943 44.439L101.11 44.711V45H105.071V44.711L104.391 44.422C104.221 44.354 104.187 44.235 104.187 44.082V38.489C104.527 38.081 105.156 37.792 105.717 37.792C106.618 37.792 106.958 38.37 106.958 39.594V44.082C106.958 44.252 106.924 44.354 106.737 44.439L106.074 44.711V45H110.018V44.711L109.185 44.422C109.015 44.371 108.981 44.235 108.981 44.082V39.05C108.981 37.384 107.876 36.619 106.703 36.619ZM115.239 36.619C112.723 36.619 111.091 38.336 111.091 40.937C111.091 43.47 112.638 45.153 114.831 45.153C116.225 45.153 117.534 44.49 118.248 43.555L117.84 43.164C117.33 43.776 116.48 44.116 115.681 44.116C114.219 44.116 113.233 42.756 113.233 40.58C113.233 38.625 114.032 37.316 115.29 37.316C115.953 37.316 116.31 37.724 116.497 38.455L116.684 39.203C116.769 39.458 116.973 39.611 117.398 39.458C117.874 39.271 118.197 38.897 118.197 38.506C118.197 37.639 116.973 36.619 115.239 36.619ZM121.312 32.964C120.598 32.964 120.054 33.508 120.054 34.171C120.054 34.834 120.598 35.412 121.312 35.412C122.043 35.412 122.587 34.834 122.587 34.171C122.587 33.508 122.043 32.964 121.312 32.964ZM122.349 36.653L119.289 37.367V37.656L120.105 37.826C120.292 37.86 120.309 38.047 120.309 38.183V44.082C120.309 44.235 120.292 44.371 120.105 44.439L119.289 44.711V45H123.403V44.711L122.553 44.422C122.4 44.354 122.349 44.235 122.349 44.082V36.653ZM127.939 36.619C126.273 36.619 124.998 37.639 124.998 38.506C124.998 38.897 125.321 39.271 125.814 39.458C126.222 39.611 126.426 39.458 126.511 39.203L126.715 38.455C126.902 37.724 127.123 37.316 127.752 37.316C128.619 37.316 129.01 38.013 129.01 39.356V40.087L127.395 40.478C125.423 40.971 124.318 41.753 124.318 43.096C124.318 44.32 125.253 45.153 126.562 45.153C127.565 45.153 128.602 44.677 129.044 43.929V45.153L132.07 44.762V44.49L131.237 44.235C131.084 44.184 131.033 44.014 131.033 43.827V39.73C131.033 37.639 129.911 36.619 127.939 36.619ZM128.993 40.682L129.01 43.317C128.687 43.827 128.092 44.15 127.582 44.15C126.919 44.15 126.392 43.725 126.392 42.773C126.392 41.872 126.97 41.294 127.99 40.971L128.993 40.682ZM136.335 36.619C134.737 36.619 133.326 37.316 133.326 38.914C133.326 39.764 133.666 40.563 135.315 41.362L136.182 41.821C136.76 42.127 137.355 42.484 137.355 43.198C137.355 43.98 136.76 44.456 135.893 44.456C135.06 44.456 134.397 44.099 134.091 43.164L133.836 42.382L133.173 42.467V44.405C133.989 44.864 134.856 45.153 136.08 45.153C138.086 45.153 139.293 44.252 139.293 42.739C139.293 41.362 138.375 40.784 137.321 40.257L136.522 39.849C135.842 39.526 135.247 39.186 135.247 38.404C135.247 37.639 135.825 37.316 136.454 37.316C137.049 37.316 137.746 37.605 137.916 38.37L138.069 39.016H138.868V37.299C138.103 36.823 137.151 36.619 136.335 36.619ZM149.38 32.913C147.221 32.913 145.232 33.95 145.232 36.126C145.232 37.911 146.286 38.795 147.731 39.441L148.989 40.053C149.635 40.41 151.08 40.988 151.08 42.484C151.08 43.674 150.162 44.439 148.802 44.439C147.629 44.439 146.643 43.997 146.167 42.722L145.691 41.447L145.113 41.498V44.201C146.728 45.051 148.003 45.238 148.904 45.238C151.556 45.238 153.392 43.878 153.392 41.804C153.392 39.764 151.998 38.948 150.162 38.098L149.431 37.741C148.513 37.316 147.561 36.772 147.561 35.548C147.561 34.409 148.36 33.712 149.584 33.712C150.502 33.712 151.25 34.154 151.607 35.191L152.032 36.415H152.695V33.814C151.845 33.27 150.485 32.913 149.38 32.913ZM159.037 36.619C156.47 36.619 154.77 38.319 154.77 40.886C154.77 43.436 156.47 45.153 159.037 45.153C161.621 45.153 163.321 43.436 163.321 40.886C163.321 38.319 161.621 36.619 159.037 36.619ZM159.037 37.333C160.278 37.333 161.111 38.676 161.111 40.886C161.111 43.079 160.278 44.439 159.037 44.439C157.796 44.439 156.98 43.079 156.98 40.886C156.98 38.676 157.813 37.333 159.037 37.333ZM168.829 36.619C166.313 36.619 164.681 38.336 164.681 40.937C164.681 43.47 166.228 45.153 168.421 45.153C169.815 45.153 171.124 44.49 171.838 43.555L171.43 43.164C170.92 43.776 170.07 44.116 169.271 44.116C167.809 44.116 166.823 42.756 166.823 40.58C166.823 38.625 167.622 37.316 168.88 37.316C169.543 37.316 169.9 37.724 170.087 38.455L170.274 39.203C170.359 39.458 170.563 39.611 170.988 39.458C171.464 39.271 171.787 38.897 171.787 38.506C171.787 37.639 170.563 36.619 168.829 36.619ZM174.902 32.964C174.188 32.964 173.644 33.508 173.644 34.171C173.644 34.834 174.188 35.412 174.902 35.412C175.633 35.412 176.177 34.834 176.177 34.171C176.177 33.508 175.633 32.964 174.902 32.964ZM175.939 36.653L172.879 37.367V37.656L173.695 37.826C173.882 37.86 173.899 38.047 173.899 38.183V44.082C173.899 44.235 173.882 44.371 173.695 44.439L172.879 44.711V45H176.993V44.711L176.143 44.422C175.99 44.354 175.939 44.235 175.939 44.082V36.653ZM181.529 36.619C179.863 36.619 178.588 37.639 178.588 38.506C178.588 38.897 178.911 39.271 179.404 39.458C179.812 39.611 180.016 39.458 180.101 39.203L180.305 38.455C180.492 37.724 180.713 37.316 181.342 37.316C182.209 37.316 182.6 38.013 182.6 39.356V40.087L180.985 40.478C179.013 40.971 177.908 41.753 177.908 43.096C177.908 44.32 178.843 45.153 180.152 45.153C181.155 45.153 182.192 44.677 182.634 43.929V45.153L185.66 44.762V44.49L184.827 44.235C184.674 44.184 184.623 44.014 184.623 43.827V39.73C184.623 37.639 183.501 36.619 181.529 36.619ZM182.583 40.682L182.6 43.317C182.277 43.827 181.682 44.15 181.172 44.15C180.509 44.15 179.982 43.725 179.982 42.773C179.982 41.872 180.56 41.294 181.58 40.971L182.583 40.682ZM189.517 32.675L186.457 33.406V33.678L187.29 33.865C187.46 33.899 187.477 34.086 187.477 34.222V44.082C187.477 44.235 187.46 44.371 187.273 44.439L186.457 44.711V45H190.554V44.711L189.721 44.422C189.551 44.371 189.517 44.235 189.517 44.082V32.675ZM195.619 36.619C193.256 36.619 191.675 38.353 191.675 40.92C191.675 43.47 193.256 45.153 195.466 45.153C197.149 45.153 198.526 44.184 199.223 42.875L198.781 42.552C198.203 43.487 197.132 44.048 196.231 44.048C194.684 44.048 193.902 42.688 193.885 40.665H199.07C199.104 40.529 199.138 40.308 199.121 40.138C199.121 38.013 197.744 36.619 195.619 36.619ZM195.636 37.316C196.469 37.316 197.03 38.234 197.03 39.373C197.03 39.696 196.996 39.815 196.843 39.849L193.919 40.036C194.038 38.404 194.701 37.316 195.636 37.316ZM203.754 36.619C202.156 36.619 200.745 37.316 200.745 38.914C200.745 39.764 201.085 40.563 202.734 41.362L203.601 41.821C204.179 42.127 204.774 42.484 204.774 43.198C204.774 43.98 204.179 44.456 203.312 44.456C202.479 44.456 201.816 44.099 201.51 43.164L201.255 42.382L200.592 42.467V44.405C201.408 44.864 202.275 45.153 203.499 45.153C205.505 45.153 206.712 44.252 206.712 42.739C206.712 41.362 205.794 40.784 204.74 40.257L203.941 39.849C203.261 39.526 202.666 39.186 202.666 38.404C202.666 37.639 203.244 37.316 203.873 37.316C204.468 37.316 205.165 37.605 205.335 38.37L205.488 39.016H206.287V37.299C205.522 36.823 204.57 36.619 203.754 36.619Z" fill="white"/>
</svg>
